<?xml version="1.0" encoding="utf-8"?>
<!-- Generator: Adobe Illustrator 21.1.0, SVG Export Plug-In . SVG Version: 6.00 Build 0)  -->
<svg version="1.1" id="Layer_1" xmlns="http://www.w3.org/2000/svg" xmlns:xlink="http://www.w3.org/1999/xlink" x="0px" y="0px"
	 viewBox="0 0 79.1 82.2" style="enable-background:new 0 0 79.1 82.2;" xml:space="preserve">
<path d="M9.2,81.5v-9.9c0-11.7,6.5-21.8,16.1-27c4.1,3.1,9.1,5,14.7,5c5.5,0,10.6-1.9,14.7-5c9.6,5.2,16.1,15.3,16.1,27l-0.4,9.9
	h7.9l0.3-9.8v-0.1c0-13.9-7.5-26.1-18.6-32.9c2.5-3.8,3.9-8.3,3.9-13.1C64,12.3,53.2,1.5,39.9,1.5S15.8,12.3,15.8,25.6
	c0,4.8,1.4,9.3,3.9,13.1c-11.1,6.8-18.5,19-18.5,33v9.8H9.2z M39.9,9.5c8.9,0,16.1,7.2,16.1,16.1c0,3.6-1.2,6.9-3.3,9.6
	c-2.2,2.9-5.3,5.1-8.9,6c-1.3,0.3-2.6,0.5-3.9,0.5c-1.4,0-2.7-0.2-3.9-0.5c-3.6-0.9-6.8-3.1-8.9-6c-2-2.7-3.3-6-3.3-9.6
	C23.8,16.7,31,9.5,39.9,9.5z"/>
</svg>
