<?xml version="1.0" encoding="utf-8"?>
<!-- Generator: Adobe Illustrator 21.1.0, SVG Export Plug-In . SVG Version: 6.00 Build 0)  -->
<svg version="1.1" id="Layer_1" xmlns="http://www.w3.org/2000/svg" xmlns:xlink="http://www.w3.org/1999/xlink" x="0px" y="0px"
	 viewBox="0 0 24 30" style="enable-background:new 0 0 24 30;" xml:space="preserve">
<style type="text/css">
	.st0{fill:#7C7C7C;}
</style>
<title>Iconsset_Lineicons</title>
<path class="st0" d="M16.2,8.5c1.2,0,2.2-1,2.2-2.1V3.5c0-1.2-1-2.2-2.2-2.2h-3.5C8.3,1.3,6.1,4,6.1,9.6v1.2H4.8
	c-1.2,0-2.2,1-2.2,2.2l0,2.3c0.1,1.2,1.1,2.1,2.2,2.1h1.3v8c0,1.2,1,2.2,2.2,2.2h3.3c1.2,0,2.2-1,2.2-2.2v-8l1.4,0
	c0.8-0.1,1.6-0.7,2-1.4l1.1-2.4l0-0.1c0.1-0.6,0-1.2-0.4-1.8c-0.4-0.5-1-0.9-1.7-0.9h-2.4V8.5H16.2z M11.7,7.4V12c0,0.5,0.5,1,1,1
	h3.4c0,0,0,0,0.1,0.1c0,0,0,0,0,0.1l-1.1,2.1c-0.1,0.2-0.3,0.3-0.3,0.3h-2.3c-0.5,0-1,0.5-1,1v9c0,0.1,0,0.1-0.1,0.1H8.3
	c-0.1,0-0.1,0-0.1-0.1v-9.1c0-0.5-0.5-1-1-1H4.8c-0.1,0-0.1,0-0.1-0.1v-2.2c0-0.1,0-0.1,0.1-0.1h2.3c0.5,0,1-0.5,1-1V9.7
	c0.1-4.5,1.4-6.3,4.6-6.3h3.4c0.1,0,0.1,0,0.1,0.1v2.8c0,0.1,0,0.1-0.1,0.1h-3.4C12.2,6.4,11.7,6.9,11.7,7.4z"/>
</svg>
