<?xml version="1.0" encoding="utf-8"?>
<!-- Generator: Adobe Illustrator 21.1.0, SVG Export Plug-In . SVG Version: 6.00 Build 0)  -->
<svg version="1.1" id="Layer_1" xmlns="http://www.w3.org/2000/svg" xmlns:xlink="http://www.w3.org/1999/xlink" x="0px" y="0px"
	 viewBox="0 0 34 34" style="enable-background:new 0 0 34 34;" xml:space="preserve">
<style type="text/css">
	.st0{fill:#0071BB;}
	.st1{fill:#FFFFFF;}
</style>
<title>Slice 1</title>
<desc>Created with Sketch.</desc>
<g id="Page-1">
	<path id="Rectangle-4" class="st0" d="M5,0h23.9c2.8,0,5,2.2,5,5v24c0,2.8-2.2,5-5,5H5c-2.8,0-5-2.2-5-5V5C0,2.2,2.2,0,5,0z"/>
	<path id="Fill-1" class="st1" d="M14.7,10.7v2.8h-3.9V18h3.9v11.9h4.7V18h3.9l0.6-4.5h-4.5v-2.8c0-2.2,1.2-2.4,2.1-2.4H24V4.3
		c0,0-1.7-0.1-3.9-0.1C16.8,4.1,14.7,6.4,14.7,10.7"/>
</g>
</svg>
