<svg id="Layer_1" data-name="Layer 1" xmlns="http://www.w3.org/2000/svg" viewBox="0 0 448 384"><title>images-icon</title><path d="M339,165a48,48,0,1,0-48-48A48,48,0,0,0,339,165Z" transform="translate(-3 -5)"/><path d="M423,5H31A28.08,28.08,0,0,0,3,33.3V360.7A28.08,28.08,0,0,0,31,389H423a28.08,28.08,0,0,0,28-28.3V33.3A28.08,28.08,0,0,0,423,5ZM319.9,202.7a17.17,17.17,0,0,0-12.8-6.2c-5.1,0-8.7,2.4-12.8,5.7L275.6,218c-3.9,2.8-7,4.7-11.5,4.7a16.55,16.55,0,0,1-11-4.1c-1-.9-2.8-2.6-4.3-4.1L195,156.3a22.05,22.05,0,0,0-16.7-7.5,22.71,22.71,0,0,0-16.8,7.8L35,309.2V48.7C36,41.9,41.3,37,48.1,37H405.8a12.69,12.69,0,0,1,12.9,12l.3,260.4Z" transform="translate(-3 -5)"/></svg>