<?xml version="1.0" encoding="utf-8"?>
<!-- Generator: Adobe Illustrator 21.1.0, SVG Export Plug-In . SVG Version: 6.00 Build 0)  -->
<svg version="1.1" id="Layer_1" xmlns="http://www.w3.org/2000/svg" xmlns:xlink="http://www.w3.org/1999/xlink" x="0px" y="0px"
	 viewBox="0 0 448 384" style="enable-background:new 0 0 448 384;" xml:space="preserve">
<style type="text/css">
	.st0{fill:#FFFFFF;}
</style>
<title>images-icon</title>
<path class="st0" d="M336,160c26.5,0,48-21.5,48-48s-21.5-48-48-48s-48,21.5-48,48S309.5,160,336,160z"/>
<path class="st0" d="M420,0H28C12.5,0,0,12.7,0,28.2c0,0,0,0.1,0,0.1v327.4c-0.1,15.5,12.4,28.2,27.9,28.3c0,0,0.1,0,0.1,0h392
	c15.5,0,28-12.7,28-28.2c0,0,0-0.1,0-0.1V28.3c0.1-15.5-12.4-28.2-27.9-28.3C420.1,0,420,0,420,0z M316.9,197.7
	c-3.2-3.8-7.8-6.1-12.8-6.2c-5.1,0-8.7,2.4-12.8,5.7L272.6,213c-3.9,2.8-7,4.7-11.5,4.7c-4,0-8-1.4-11-4.1c-1-0.9-2.8-2.6-4.3-4.1
	L192,151.3c-4.2-4.8-10.3-7.5-16.7-7.5c-6.5,0.1-12.6,2.9-16.8,7.8L32,304.2V43.7C33,36.9,38.3,32,45.1,32h357.7
	c6.8-0.1,12.5,5.2,12.9,12l0.3,260.4L316.9,197.7z"/>
</svg>
