<?xml version="1.0" encoding="utf-8"?>
<!-- Generator: Adobe Illustrator 21.1.0, SVG Export Plug-In . SVG Version: 6.00 Build 0)  -->
<svg version="1.1" id="Layer_1" xmlns="http://www.w3.org/2000/svg" xmlns:xlink="http://www.w3.org/1999/xlink" x="0px" y="0px"
	 viewBox="0 0 33.7 33.3" style="enable-background:new 0 0 33.7 33.3;" xml:space="preserve">
<style type="text/css">
	.st0{fill:#818181;}
	.st1{font-family:'Roboto-Black';}
	.st2{font-size:22px;}
	.st3{clip-path:url(#SVGID_2_);fill:none;stroke:#979797;stroke-width:2;stroke-miterlimit:10;}
</style>
<text transform="matrix(1 0 0 1 10.3754 25.1728)" class="st0 st1 st2">K</text>
<g>
	<defs>
		<path id="SVGID_1_" d="M8.4,0.2h17c4.4,0,8,3.6,8,8v17c0,4.4-3.6,8-8,8h-17c-4.4,0-8-3.6-8-8v-17C0.4,3.8,4,0.2,8.4,0.2z"/>
	</defs>
	<clipPath id="SVGID_2_">
		<use xlink:href="#SVGID_1_"  style="overflow:visible;"/>
	</clipPath>
	<path class="st3" d="M8.4,0.2h17c4.4,0,8,3.6,8,8v17c0,4.4-3.6,8-8,8h-17c-4.4,0-8-3.6-8-8v-17C0.4,3.8,4,0.2,8.4,0.2z"/>
</g>
</svg>
