<?xml version="1.0" encoding="utf-8"?>
<!-- Generator: Adobe Illustrator 21.1.0, SVG Export Plug-In . SVG Version: 6.00 Build 0)  -->
<svg version="1.1" id="Layer_1" xmlns="http://www.w3.org/2000/svg" xmlns:xlink="http://www.w3.org/1999/xlink" x="0px" y="0px"
	 viewBox="0 0 100 100" style="enable-background:new 0 0 100 100;" xml:space="preserve">
<g>
	<path d="M92.2,5H7.8C6.3,5,5,6.3,5,7.8v84.4C5,93.8,6.3,95,7.8,95h84.4c1.6,0,2.8-1.3,2.8-2.8V7.8C95,6.3,93.7,5,92.2,5z
		 M26.5,89.4c1-12.1,11.1-21.7,23.5-21.7s22.5,9.6,23.5,21.7C73.5,89.4,26.5,89.4,26.5,89.4z M89.4,89.4H79.1
		c-1-15.2-13.7-27.3-29.1-27.3c-15.5,0-28.1,12.1-29.1,27.3H10.6V10.7h78.7v78.7C89.3,89.4,89.4,89.4,89.4,89.4z"/>
	<path d="M50,57.2c8.6,0,15.5-7,15.5-15.5s-7-15.5-15.5-15.5s-15.5,7-15.5,15.5S41.4,57.2,50,57.2z M50,31.7c5.5,0,9.9,4.4,9.9,9.9
		s-4.4,9.9-9.9,9.9s-9.9-4.4-9.9-9.9S44.5,31.7,50,31.7z"/>
</g>
</svg>
