<?xml version="1.0" encoding="utf-8"?>
<!-- Generator: Adobe Illustrator 21.1.0, SVG Export Plug-In . SVG Version: 6.00 Build 0)  -->
<svg version="1.1"
	 id="Layer_1" xmlns:cc="http://creativecommons.org/ns#" xmlns:dc="http://purl.org/dc/elements/1.1/" xmlns:inkscape="http://www.inkscape.org/namespaces/inkscape" xmlns:rdf="http://www.w3.org/1999/02/22-rdf-syntax-ns#" xmlns:sodipodi="http://sodipodi.sourceforge.net/DTD/sodipodi-0.dtd" xmlns:svg="http://www.w3.org/2000/svg"
	 xmlns="http://www.w3.org/2000/svg" xmlns:xlink="http://www.w3.org/1999/xlink" x="0px" y="0px" viewBox="0 0 100 101"
	 style="enable-background:new 0 0 100 101;" xml:space="preserve">
<g transform="translate(0,-952.36218)">
	<path d="M12,966.4c-3.3,0-6,2.7-6,6v60c0,3.3,2.7,6,6,6h76c3.3,0,6-2.7,6-6v-60c0-3.3-2.7-6-6-6H12z M12,970.4h11v4.6
		c-1.2,0.7-2,2-2,3.4c0,2.2,1.8,4,4,4s4-1.8,4-4c0-1.5-0.8-2.7-2-3.4v-4.6h21v4.6c-1.2,0.7-2,2-2,3.4c0,2.2,1.8,4,4,4s4-1.8,4-4
		c0-1.5-0.8-2.7-2-3.4v-4.6h21v4.6c-1.2,0.7-2,2-2,3.4c0,2.2,1.8,4,4,4s4-1.8,4-4c0-1.5-0.8-2.7-2-3.4v-4.6h11c1.1,0,2,0.9,2,2v60
		c0,1.1-0.9,2-2,2H12c-1.1,0-2-0.9-2-2v-60C10,971.2,10.9,970.4,12,970.4z M65,989.4c-5.5,0-10,4.5-10,10c0,3.7,2.1,7,5.1,8.7
		c-7.5,2.1-13.1,9.1-13.1,17.3c0,1.1,0.9,2,2,2h32c1.1,0,2-0.9,2-2c0-8.2-5.6-15.2-13.1-17.3c3-1.7,5.1-5,5.1-8.7
		C75,993.9,70.5,989.4,65,989.4z M19,991.4h20H19z M65,993.4c3.3,0,6,2.7,6,6s-2.7,6-6,6c-3.3,0-6-2.7-6-6S61.7,993.4,65,993.4z
		 M18.8,999.4c-1.1,0.1-2,1-1.9,2.1c0.1,1.1,1,2,2.1,1.9c0,0,0,0,0,0h10c1.1,0,2-0.9,2-2c0-1.1-0.9-2-2-2c0,0,0,0-0.1,0H19
		C18.9,999.4,18.9,999.4,18.8,999.4z M18.8,1007.4c-1.1,0.1-2,1-1.9,2.1s1,2,2.1,1.9h20c1.1,0,2-0.9,2-2c0-1.1-0.9-2-2-2
		c0,0,0,0-0.1,0H19C18.9,1007.4,18.9,1007.4,18.8,1007.4z M65,1011.4c7.1,0,12.8,5.2,13.8,12H51.2
		C52.2,1016.6,57.9,1011.4,65,1011.4z M18.8,1015.4c-1.1,0.1-2,1-1.9,2.1s1,2,2.1,1.9h20c1.1,0,2-0.9,2-2c0-1.1-0.9-2-2-2
		c0,0,0,0-0.1,0H19C18.9,1015.4,18.9,1015.4,18.8,1015.4z M18.8,1023.4c-1.1,0.1-2,1-1.9,2.1s1,2,2.1,1.9h20c1.1,0,2-0.9,2-2
		c0-1.1-0.9-2-2-2c0,0,0,0-0.1,0H19C18.9,1023.4,18.9,1023.4,18.8,1023.4z"/>
</g>
</svg>
