<?xml version="1.0" encoding="utf-8"?>
<!-- Generator: Adobe Illustrator 21.1.0, SVG Export Plug-In . SVG Version: 6.00 Build 0)  -->
<svg version="1.1" id="Layer_1" xmlns="http://www.w3.org/2000/svg" xmlns:xlink="http://www.w3.org/1999/xlink" x="0px" y="0px"
	 viewBox="0 0 100 100" style="enable-background:new 0 0 100 100;" xml:space="preserve">
<g>
	<path d="M62.5,10h-25c-6.6,0-12,5.4-12,12v56c0,6.6,5.4,12,12,12h24.9c6.6,0,12-5.4,12-12V22C74.5,15.4,69.1,10,62.5,10z
		 M31.5,28.7h36.9v39.9H31.5V28.7z M37.5,16h24.9c3.3,0,6,2.7,6,6v0.7H31.5V22C31.5,18.7,34.2,16,37.5,16z M62.5,84h-25
		c-3.3,0-6-2.7-6-6v-3.4h36.9V78C68.5,81.3,65.8,84,62.5,84z"/>
	<path d="M56.8,76.2H43.2c-1.7,0-3,1.3-3,3s1.3,3,3,3h13.7c1.7,0,3-1.3,3-3S58.5,76.2,56.8,76.2z"/>
</g>
</svg>
