<?xml version="1.0" encoding="utf-8"?>
<!-- Generator: Adobe Illustrator 21.1.0, SVG Export Plug-In . SVG Version: 6.00 Build 0)  -->
<svg version="1.1" id="Layer_1" xmlns="http://www.w3.org/2000/svg" xmlns:xlink="http://www.w3.org/1999/xlink" x="0px" y="0px"
	 viewBox="0 0 50 50" style="enable-background:new 0 0 50 50;" xml:space="preserve">
<style type="text/css">
	.st0{fill:#7C7C7C;}
</style>
<path class="st0" d="M45.9,11.4c0.2-1.3,0.3-2.7-0.7-3.4c-0.6-0.5-1.3-0.7-2.1-0.7c-0.7,0-1.2,0.2-1.7,0.5c-0.8,0.5-1.6,0.8-2.4,1.1
	c-2-1.4-4.3-2.1-6.6-2.1c-5.4,0-10.1,3.9-11,9.2c-4.1-1-7.7-3.3-10.3-6.5c-0.5-0.7-1.5-1.2-2.6-1.2H8.3c-1.1,0-2.2,0.6-2.6,1.6
	c-1,1.6-1.6,3.6-1.6,5.6c0,1.2,0.2,2.4,0.5,3.6C4.2,19.5,4,20.2,4,21c0,2.7,1,5.4,2.8,7.5c-0.1,0.6,0,1.1,0.2,1.5
	c0.5,1.7,1.4,3.2,2.6,4.4c-0.6,0.1-1.2,0.2-1.9,0.2c-0.5,0-1,0-1.4-0.1l0,0h0H5.9c-1.5,0-2.7,0.9-3.2,2.2c-0.5,1.5,0.1,3.1,1.3,3.9
	c4.2,2.7,9,4.1,13.9,4.1c9.5,0,15.5-4.3,18.8-8c4.3-4.6,6.8-10.9,6.9-17.2c1.3-1.1,2.4-2.3,3.2-3.6c0.4-0.6,0.7-1.3,0.7-2
	C47.6,12.8,46.7,12.1,45.9,11.4z M18.9,33.9l-1.4,0c-2.9-0.1-5.5-1.8-6.7-4.4c0.3,0,0.5,0,0.7,0c0.7,0,1.5-0.1,2.2-0.3l2-0.6l-2-0.4
	c-3.2-0.6-5.6-3.3-5.9-6.5c0.9,0.4,1.9,0.6,3,0.7l1.9,0.1l-1.6-1.1C9.2,20.1,8,17.8,8,15.3c0-1,0.2-2.1,0.7-3.1
	c4.1,4.7,9.9,7.5,16.1,7.8l0.6,0l-0.1-0.6c-0.1-0.6-0.2-1.2-0.2-1.7c0-4.1,3.3-7.4,7.4-7.4c2,0,3.9,0.8,5.3,2.3l0.2,0.2l0.3-0.1
	c1.4-0.3,2.7-0.7,3.9-1.3c-0.6,1.2-1.6,2.2-2.7,2.9l-2.1,1.2l2.4-0.3c1.1-0.1,2.1-0.4,3.1-0.7c-0.8,1-1.8,1.9-2.9,2.8l-0.2,0.1v0.3
	v1c0,10.8-8.2,21.9-21.9,21.9c-3.5,0-6.9-0.8-10-2.4c3.6,0,7-1.2,9.9-3.5L18.9,33.9z"/>
</svg>
